<svg xmlns="http://www.w3.org/2000/svg" viewBox="0 0 263.62205 171.0898"><defs><style>.cls-1{fill:#fff;}.cls-2{fill:none;}.cls-3{fill:#002d74;}.cls-4{fill:#a98b31;}</style></defs><g id="Layer_6" data-name="Layer 6"><rect class="cls-1" x="8.50394" width="255.11811" height="170.935"/></g><g id="format"><rect class="cls-2" x="8.50394" y="8.50394" width="246.61417" height="144.56693"/></g><g id="formt_3" data-name="formt+3"><rect class="cls-2" width="263.62205" height="161.5748"/></g><g id="bleu"><rect class="cls-3" x="101.6978" width="161.92425" height="140.79147"/><path class="cls-1" d="M255.11811,162.58586c0-166.362-12.206-171.0898-169.64795-171.0898l.39991,170.88442Z" transform="translate(8.50394 8.50394)"/></g><g id="rond"><circle class="cls-1" cx="199.55906" cy="64.06299" r="55.55906"/></g><g id="logo2"><polygon class="cls-3" points="115.071 76.805 131.453 76.805 146.18 74.671 147.836 60.631 147.836 44.04 115.071 44.04 115.071 76.805"/><path class="cls-4" d="M122.94947,68.30143H139.3318V51.91871l-.00107.04261.00107-.04265A16.38234,16.38234,0,1,0,122.94947,68.3014" transform="translate(8.50394 8.50394)"/><path class="cls-1" d="M132.17551,42.693V61.1451H113.72343V42.693h18.45208" transform="translate(8.50394 8.50394)"/><path class="cls-3" d="M72.0479,81.28066a1.772,1.772,0,0,1,0,.489v.18548a.52536.52536,0,0,0-.02533.21062.42961.42961,0,0,1-.02533.19386,1.016,1.016,0,0,1-.01675.219,1.49168,1.49168,0,0,0-.04209.27841,1.5324,1.5324,0,0,1-.04227.278c-.02267.08988-.045.1771-.06742.26127-.02266.08417-.04494.17138-.06741.26126q-.13511.38792-.26965.7503a3.66987,3.66987,0,0,1-.33725.6825c-.05637.10131-.11787.20528-.18548.31192q-.10111.16053-.219.31193-.08455.10111-.16872.19385a.69908.69908,0,0,0-.13483.22776.32947.32947,0,0,0,.08436.38771,3.35191,3.35191,0,0,0,.2866.23575,2.397,2.397,0,0,0,.37077.30355,1.42941,1.42941,0,0,0,.1771.15158,1.58737,1.58737,0,0,1,.17691.152l.08436.12645a.2255.2255,0,0,1,.01675.19386.5054.5054,0,0,1-.10949.219q-.076.08455-.16015.18548a1.09842,1.09842,0,0,1-.11807.16034.40646.40646,0,0,1-.15158.10931.38994.38994,0,0,1-.19386.01714.45039.45039,0,0,1-.16872-.06742,1.40925,1.40925,0,0,1-.1432-.10968,1.166,1.166,0,0,0-.11807-.09293q-.18567-.13483-.37077-.28641-.18567-.152-.37095-.28679c-.09008-.06741-.17139-.13177-.24452-.19385a.77736.77736,0,0,0-.278-.14321.335.335,0,0,0-.23614.01676q-.10112.05085-.18528.08455a2.83589,2.83589,0,0,1-.354.13483q-.16882.05026-.354.11806a2.05927,2.05927,0,0,1-.47208.10931,3.27172,3.27172,0,0,0-.48883.09293c-.05637,0-.1154.00266-.1771.00838-.06189.00571-.12644.00838-.19386.00838a.1157.1157,0,0,1-.07579.00838.38444.38444,0,0,0-.076-.00838,1.228,1.228,0,0,1-.573,0H65.861a1.67458,1.67458,0,0,0-.32868-.03352,1.43508,1.43508,0,0,1-.31193-.0339q-.15168-.0337-.30335-.059a1.50986,1.50986,0,0,1-.2866-.07579c-.15748-.056-.31192-.10969-.4635-.16q-.22767-.076-.44675-.16034a4.52294,4.52294,0,0,1-.489-.28641,5.60891,5.60891,0,0,1-2.124-2.52891,2.58767,2.58767,0,0,1-.13482-.36219q-.05057-.17711-.11807-.36258a.28094.28094,0,0,1-.03371-.12645.533.533,0,0,0-.01675-.12644,2.67472,2.67472,0,0,1-.08436-.3203q-.034-.16854-.06742-.33706a.37536.37536,0,0,1-.02533-.1771.38236.38236,0,0,0-.02513-.1771.289.289,0,0,1-.017-.16834.29356.29356,0,0,0-.017-.16872v-.13483a1.78925,1.78925,0,0,1,0-.69126v-.219c0-.07846.00267-.1573.00857-.23614q.00829-.11768.02533-.23613a.83188.83188,0,0,0,.03371-.22737.82217.82217,0,0,1,.0337-.22776q.06713-.25251.1095-.4974a2.87034,2.87034,0,0,1,.12644-.48026,5.525,5.525,0,0,1,3.2535-3.55685,2.24084,2.24084,0,0,1,.59014-.18548q.30334-.05083.6406-.13482l.50559-.05065a.32553.32553,0,0,1,.10131.01675.0759.0759,0,0,0,.08417-.01675,6.41928,6.41928,0,0,1,1.88811.219,5.688,5.688,0,0,1,1.44974.64061,2.96568,2.96568,0,0,1,.25289.1771,2.80072,2.80072,0,0,0,.2529.17709c.02228.02248.0476.05066.07579.08417a.41746.41746,0,0,0,.09274.08417,1.47117,1.47117,0,0,1,.18547.18548.85605.85605,0,0,1,.11807.10131q.06712.06741.12626.13483t.10968.13482q.18538.25308.37934.52254a3.265,3.265,0,0,1,.32868.57319,4.87314,4.87314,0,0,1,.21081.489q.09225.25251.17691.53929a3.48835,3.48835,0,0,1,.10949.41324,4.29066,4.29066,0,0,0,.10969.4296l.05046.45513q.01686.11826.02533.23613.00828.11826.02533.2529Zm-1.60152.8935a1.21523,1.21523,0,0,0,.03371-.29517v-.497a.6397.6397,0,0,0-.01676-.152v-.29479a.83532.83532,0,0,0-.01695-.16034.304.304,0,0,1-.02532-.15158.31237.31237,0,0,0-.02514-.152q-.034-.1851-.0676-.37058a3.279,3.279,0,0,0-.08417-.3542.624.624,0,0,1-.04209-.1432.42723.42723,0,0,0-.04227-.12645c-.03371-.11235-.07027-.22166-.1095-.32868q-.05942-.16-.12644-.31192a.86431.86431,0,0,0-.09274-.16872c-.03961-.056-.0758-.112-.1095-.16834a1.85574,1.85574,0,0,1-.11807-.20224,1.96029,1.96029,0,0,0-.11806-.20262,4.1755,4.1755,0,0,0-.64061-.66574,3.47412,3.47412,0,0,0-.79219-.51416,2.57231,2.57231,0,0,0-.45531-.16q-.23623-.05885-.48884-.12645a1.69128,1.69128,0,0,0-.49721-.06741h-.56481a.07732.07732,0,0,1-.059.00838.184.184,0,0,0-.059-.00838c-.06741.011-.13216.01943-.19386.02514q-.09283.00857-.19386.02513-.23622.068-.44674.10969a2.20458,2.20458,0,0,0-.41285.12645,3.49025,3.49025,0,0,0-1.42461,1.08735A5.70281,5.70281,0,0,0,62.4053,79.595a2.19493,2.19493,0,0,0-.10112.37933q-.034.19368-.08436.3961a1.66642,1.66642,0,0,0-.02533.16872c-.00571.05637-.01428.11235-.02532.16834a.6128.6128,0,0,0-.00838.1771.38016.38016,0,0,1-.02533.1771v.15158a.81707.81707,0,0,0-.00838.21061q.00828.12684.00838.22776,0,.25251.017.4974a2.94122,2.94122,0,0,0,.06741.46351.64155.64155,0,0,1,.03371.20223.49087.49087,0,0,0,.0337.18548q.06712.21937.11807.43a2.702,2.702,0,0,0,.13482.41285,5.49321,5.49321,0,0,0,.42143.83447,3.99754,3.99754,0,0,0,.57319.71639c.04475.04494.08988.09027.13482.13483a1.65819,1.65819,0,0,0,.15178.13482.89124.89124,0,0,0,.18547.14359q.10113.05883.219.1432a.41955.41955,0,0,0,.10131.05065.43138.43138,0,0,1,.10111.05028,2.26138,2.26138,0,0,0,.49722.211q.26108.07542.54786.14321a.50073.50073,0,0,0,.20243.02513.61924.61924,0,0,1,.219.02552.76727.76727,0,0,0,.23614.04189.56285.56285,0,0,0,.23594-.02513h.20224a.32978.32978,0,0,1,.12644-.00838.33026.33026,0,0,0,.12645-.00838q.15167-.0337.31192-.059a1.55022,1.55022,0,0,0,.295-.07579q.08426-.05085.16015-.09293a.24988.24988,0,0,0,.10968-.16.22671.22671,0,0,0-.0676-.18547.74526.74526,0,0,0-.13482-.13483q-.08455-.06741-.17691-.14358a2.278,2.278,0,0,1-.1771-.16c-.04494-.0339-.09007-.06742-.13483-.10131a.45634.45634,0,0,1-.11806-.13483.36617.36617,0,0,1-.05047-.13482.2879.2879,0,0,1,.01676-.16834.35754.35754,0,0,1,.10112-.16034.59029.59029,0,0,0,.11807-.1432.83883.83883,0,0,1,.25289-.26965.31813.31813,0,0,1,.3203-.02552,2.78351,2.78351,0,0,1,.25289.16034q.21881.15139.413.31192.19338.16.413.31155a1.37686,1.37686,0,0,0,.17691.10969.28288.28288,0,0,0,.24452.00837.77661.77661,0,0,0,.37933-.33706q.17682-.26964.278-.45512a1.24954,1.24954,0,0,0,.076-.14321c.01676-.03922.03618-.08721.05884-.14358a9.09519,9.09519,0,0,0,.354-.97767.471.471,0,0,0,.03371-.1771.61.61,0,0,1,.03389-.19385.69282.69282,0,0,0,.03371-.219.68378.68378,0,0,1,.03371-.219.37239.37239,0,0,1,.00838-.07617A.47635.47635,0,0,0,70.44638,82.17416Z" transform="translate(8.50394 8.50394)"/><path class="cls-3" d="M75.77346,75.54911q.23567,0,.56463-.00838.32877-.00856.43.12645a.63945.63945,0,0,1,.12625.45512q-.00856.30336-.00838.5732v5.66414q0,.59013.017,1.15476a3.36026,3.36026,0,0,0,.16853,1.0028,2.81175,2.81175,0,0,0,.62366,1.079,3.11757,3.11757,0,0,0,1.02832.69126,1.33338,1.33338,0,0,0,.38791.10969,3.35205,3.35205,0,0,1,.40447.07579c.06741.01142.13749.0198.2108.02513q.10941.00915.21062.02552h.16853c.0676,0,.13768.00267.21081.00838a.42285.42285,0,0,0,.19385-.02552.63324.63324,0,0,1,.1771-.00838.59241.59241,0,0,0,.17691-.00837q.20224-.05028.38772-.08417a1.57244,1.57244,0,0,0,.371-.11807,2.60422,2.60422,0,0,0,1.003-.65736,2.97615,2.97615,0,0,0,.58157-1.079,3.697,3.697,0,0,0,.16015-.95253q.02542-.53073.02533-1.08735v-5.6809c0-.19119-.00286-.40714-.00838-.649a.74154.74154,0,0,1,.12644-.51416.35964.35964,0,0,1,.31174-.11807h.44675a1.42663,1.42663,0,0,1,.16015.00838,1.42874,1.42874,0,0,0,.16015.00838.437.437,0,0,1,.30354.16872.69291.69291,0,0,1,.07579.38771q-.00856.25251-.00838.45513v5.83286q0,.62385-.01694,1.23056a4.60727,4.60727,0,0,1-.15178,1.09573,5.1653,5.1653,0,0,1-.61527,1.40766,3.295,3.295,0,0,1-1.01976.986,3.99357,3.99357,0,0,1-.53948.26965q-.28707.11826-.6069.21937a2.00386,2.00386,0,0,1-.30355.0758c-.10111.01675-.20795.03618-.3203.059a1.75758,1.75758,0,0,1-.34544.03351,1.72841,1.72841,0,0,0-.34563.0339h-.20224a2.179,2.179,0,0,1-.53948,0h-.20243a.69051.69051,0,0,0-.24432-.02514.71777.71777,0,0,1-.24451-.02551h-.13483a2.33275,2.33275,0,0,0-.26127-.05066,2.39833,2.39833,0,0,1-.26127-.05027q-.28679-.08455-.56481-.16034a3.30421,3.30421,0,0,1-.53092-.19386,1.70617,1.70617,0,0,1-.22756-.11807q-.11-.06684-.22776-.15158a3.2217,3.2217,0,0,1-.84284-.75867,4.27808,4.27808,0,0,1-.57319-1.02832,2.78983,2.78983,0,0,1-.15158-.52254q-.05056-.26966-.11807-.55644-.01713-.13482-.02533-.26127c-.00571-.08417-.01428-.171-.02532-.26127v-.16872a.75818.75818,0,0,1-.01676-.278,2.41855,2.41855,0,0,0,.01676-.278V75.98748a.446.446,0,0,1,.06741-.25289.39271.39271,0,0,1,.25289-.16872A.34918.34918,0,0,0,75.77346,75.54911Z" transform="translate(8.50394 8.50394)"/><path class="cls-3" d="M98.27825,86.67515q.0337.08455.08436.20224a1.2327,1.2327,0,0,1,.0758.24451.55427.55427,0,0,1,0,.23613.22554.22554,0,0,1-.14321.16.53783.53783,0,0,1-.20223.03389h-.73335a.85091.85091,0,0,1-.413-.08455.58483.58483,0,0,1-.24451-.35382,4.659,4.659,0,0,0-.16015-.45512q-.18567-.43818-.33706-.91026-.15168-.47189-.33726-.92739-.05055-.1514-.09273-.28641a1.7253,1.7253,0,0,0-.10112-.25289.62877.62877,0,0,0-.16015-.20223.75261.75261,0,0,0-.26965-.13483.43333.43333,0,0,0-.19386-.02552c-.07332.00572-.14911.00838-.22756.00838H91.63645q-.152,0-.33725-.00838a2.51353,2.51353,0,0,0-.354.00838,2.43907,2.43907,0,0,0-.31193.05066.33221.33221,0,0,0-.21061.13482,1.05525,1.05525,0,0,0-.19386.37934q-.05942.2108-.14339.43-.16854.3879-.31174.80894-.14367.42162-.31192.80933-.034.10112-.076.22775-.04227.12626-.09255.26127a1.97871,1.97871,0,0,1-.10969.24413.48457.48457,0,0,1-.12644.16035.63168.63168,0,0,1-.36239.10968q-.22765.00858-.48045.00838-.13512,0-.26127-.00838a.36577.36577,0,0,1-.21081-.07617.1838.1838,0,0,1-.09274-.15158.67624.67624,0,0,1,.01695-.21062,1.62663,1.62663,0,0,1,.06741-.21937.85149.85149,0,0,1,.07579-.16q.236-.53929.42142-1.0706.18538-.53073.40467-1.07021.15167-.37077.28659-.73354.13483-.36219.2866-.73315.50559-1.214.96091-2.45274.455-1.23912.96091-2.46987.18539-.43818.34563-.8935.15995-.45531.34544-.89349a4.21135,4.21135,0,0,0,.16015-.41285.60787.60787,0,0,1,.22756-.32868.44643.44643,0,0,1,.21919-.10131.1157.1157,0,0,1,.076-.00838.11337.11337,0,0,0,.07579-.00838q.30335,0,.708-.00838a.97984.97984,0,0,1,.59.12645.65506.65506,0,0,1,.2108.32868,4.16389,4.16389,0,0,0,.16015.41285q.16826.3879.30336.77543.13482.3879.30354.77543.13455.33763.26127.69126.12654.3542.27822.69126.50559,1.23055.96929,2.48663.46331,1.2557.98623,2.48625a2.75156,2.75156,0,0,1,.1095.28679q.042.13482.09274.2864.18539.43875.36239.8935Q98.093,86.237,98.27825,86.67515Zm-3.6075-4.09652a.28276.28276,0,0,0,.19386-.16834.50706.50706,0,0,0,.01695-.26127,1.39749,1.39749,0,0,0-.08436-.28679c-.03961-.09521-.07579-.1771-.1095-.24451a.26731.26731,0,0,1-.0337-.11806.27181.27181,0,0,0-.0339-.11769q-.05056-.13482-.09255-.27841a2.43655,2.43655,0,0,0-.10969-.29478q-.2528-.60729-.44674-1.23932-.194-.63185-.44675-1.23894a3.27006,3.27006,0,0,1-.14321-.371,2.49285,2.49285,0,0,0-.14339-.35382,1.47766,1.47766,0,0,0-.07579-.16034.18541.18541,0,0,0-.17691-.07579.25543.25543,0,0,1-.0676.05065.2657.2657,0,0,0-.06741.05066.62922.62922,0,0,0-.10112.17709c-.02266.0617-.04494.12607-.06741.19386a2.4526,2.4526,0,0,0-.13483.37058,2.46812,2.46812,0,0,1-.13482.371,13.04885,13.04885,0,0,0-.49741,1.33186q-.21079.67412-.48045,1.31473c-.02266.05636-.04208.11273-.059.16872-.01676.05637-.03656.11235-.05885.16872l-.1013.26965a2.439,2.439,0,0,0-.08417.26965.39978.39978,0,0,0-.02533.18547.45412.45412,0,0,0,.04208.16834.40411.40411,0,0,0,.354.14359q.26966.00856.50578.00838H93.811q.18539,0,.45513.00838A1.11437,1.11437,0,0,0,94.67075,82.57863Z" transform="translate(8.50394 8.50394)"/><path class="cls-3" d="M111.03952,81.2639c0,.08989.00247.18815.00838.29479a.85682.85682,0,0,1-.02533.27841v.16834a.26414.26414,0,0,0-.00838.11806.18665.18665,0,0,1-.00838.10131.89035.89035,0,0,0-.01695.1771.91282.91282,0,0,1-.01675.17672,3.3838,3.3838,0,0,0-.06761.4974,1.81828,1.81828,0,0,1-.10111.4974q-.05056.20224-.1095.41286a3.619,3.619,0,0,1-.14339.41323,5.73106,5.73106,0,0,1-.7164,1.30635,3.91441,3.91441,0,0,1-1.07041.986,4.10688,4.10688,0,0,1-.68288.34582q-.36247.1434-.78381.278a1.79369,1.79369,0,0,1-.39609.09293,3.28259,3.28259,0,0,0-.413.07579,2.0259,2.0259,0,0,1-.36239.03352,1.75675,1.75675,0,0,0-.34563.03389h-.23613a.26828.26828,0,0,1-.11788.00838,1.07272,1.07272,0,0,0-.13482-.00838h-3.37156a3.43284,3.43284,0,0,1-.44675-.02552.30081.30081,0,0,1-.26127-.21061.82.82,0,0,1-.059-.38772q.00828-.25308.00838-.45512V76.51c0-.13483-.00286-.27841-.00838-.43a.63058.63058,0,0,1,.07579-.36258.34167.34167,0,0,1,.25289-.15158.09526.09526,0,0,1,.06741-.00838.09377.09377,0,0,0,.06742-.00838h3.65815a1.43117,1.43117,0,0,0,.16015-.00838.40622.40622,0,0,1,.14339.00838.31331.31331,0,0,0,.17691.01676.477.477,0,0,1,.1771,0,.931.931,0,0,0,.18529.01675.96377.96377,0,0,1,.18548.01714.83107.83107,0,0,0,.16015.01676.83243.83243,0,0,1,.16015.01676c.12359.02285.24147.04227.354.059a2.4524,2.4524,0,0,1,.33725.07579q.37049.11826.708.22776a2.6678,2.6678,0,0,1,.62366.29478,4.69909,4.69909,0,0,1,.42142.27,1.16693,1.16693,0,0,1,.10112.07579,1.16327,1.16327,0,0,0,.10111.07579c.06761.05637.12912.11236.18548.16872.05618.05637.11217.11236.16872.16834a.96468.96468,0,0,0,.13483.11807,1.59341,1.59341,0,0,0,.1432.18548,1.6481,1.6481,0,0,1,.14339.18548,1.29764,1.29764,0,0,1,.14321.21061,2.06905,2.06905,0,0,0,.14339.22776.96258.96258,0,0,1,.05047.11768.8448.8448,0,0,0,.05065.11807c.04475.09026.08417.1771.11788.26127q.05055.12682.11806.26127a3.008,3.008,0,0,1,.1095.37933q.042.19425.09274.37934a.6131.6131,0,0,1,.0337.19386.606.606,0,0,0,.03371.19385,2.72606,2.72606,0,0,1,.09274.66613Q111.03923,80.91027,111.03952,81.2639Zm-1.60151.87636a1.85808,1.85808,0,0,0,.0337-.3622v-.37933q0-.13482.00838-.26127a.71474.71474,0,0,0-.02533-.24451.62951.62951,0,0,0-.00838-.10131.711.711,0,0,1-.00837-.11769,2.73014,2.73014,0,0,1-.04228-.371,1.7061,1.7061,0,0,0-.05884-.371q-.034-.13482-.059-.26127-.02541-.12626-.059-.26127a4.40933,4.40933,0,0,0-.47207-1.06222,2.91539,2.91539,0,0,0-1.39909-1.146,1.3147,1.3147,0,0,0-.3203-.12645q-.16882-.04227-.354-.09293a1.74194,1.74194,0,0,0-.37934-.059,2.75157,2.75157,0,0,1-.37933-.0419h-.354a.3803.3803,0,0,0-.11807-.01713h-2.19146a.132.132,0,0,1-.08437.00837.139.139,0,0,0-.08417.00876q-.08454.0337-.16015.06742a.216.216,0,0,0-.10968.10092,1.03679,1.03679,0,0,0-.06742.23614v.13482a.62737.62737,0,0,0-.01675.15158v7.9653a.59139.59139,0,0,0,.01675.14358v.13482a1.02578,1.02578,0,0,0,.06742.23576.54746.54746,0,0,0,.50578.19385q.37075-.008.708-.00838h.97786c.07846,0,.16263.00305.25289.00838a.61349.61349,0,0,0,.23594-.02513h.18548a.66608.66608,0,0,1,.18529-.00838.82033.82033,0,0,0,.20243-.00838.87075.87075,0,0,1,.20223-.04228,1.10457,1.10457,0,0,0,.21919-.04227q.18538-.05028.36239-.10093a2.61691,2.61691,0,0,0,.36238-.13482,3.2707,3.2707,0,0,0,1.0706-.73354,3.82859,3.82859,0,0,0,.73334-1.10411,2.7653,2.7653,0,0,0,.14321-.39609q.05885-.21081.12644-.43a2.72914,2.72914,0,0,0,.07579-.3961q.02542-.21081.059-.41285a.76927.76927,0,0,0,.017-.14358Z" transform="translate(8.50394 8.50394)"/><path class="cls-3" d="M123.80078,87.13028a.26541.26541,0,0,1-.06741.33706.46027.46027,0,0,1-.2108.059c-.08417.0061-.17139.00838-.26127.00838h-.53949a.67249.67249,0,0,1-.42142-.11768.40175.40175,0,0,1-.17691-.26127q-.04227-.17711-.076-.36258a.52052.52052,0,0,1-.01676-.12645v-.10968a.24385.24385,0,0,1-.01695-.15158.27834.27834,0,0,0,0-.13483,1.22856,1.22856,0,0,1-.01676-.20224v-.20261l-.05065-.75829a.8476.8476,0,0,1-.03371-.23614,1.04948,1.04948,0,0,0-.0337-.25289,4.61444,4.61444,0,0,1-.12645-.60671,2.17348,2.17348,0,0,0-.16015-.57319,1.67558,1.67558,0,0,0-1.062-.94415,1.46987,1.46987,0,0,0-.48045-.09255q-.26165-.00857-.54787-.00876h-3.10191c-.07864.02285-.14891.04228-.21061.059a.30855.30855,0,0,0-.16015.10969.9381.9381,0,0,0-.1095.54806q.00828.37933.00838.66574V86.22q0,.23651.01676.58157a1.08256,1.08256,0,0,1-.06741.51416.20579.20579,0,0,1-.13483.15158.28075.28075,0,0,1-.12644.0339.40527.40527,0,0,0-.14321.03351.43639.43639,0,0,1-.15177.00876,1.6716,1.6716,0,0,0-.16853-.00876c-.12378,0-.24451-.00228-.36258-.00838a.53651.53651,0,0,1-.295-.09254.33812.33812,0,0,1-.13483-.31193V76.42547q0-.1851-.00838-.38772a.50137.50137,0,0,1,.07579-.3203.49592.49592,0,0,1,.25289-.16834.09535.09535,0,0,1,.06742-.00838.09567.09567,0,0,0,.06741-.00838h4.88871c.07865,0,.16282-.00267.25289-.00876a1.08062,1.08062,0,0,1,.23613.00876h.18529c.06741.01105.135.01942.20243.02514s.14035.01409.21918.02513a2.10234,2.10234,0,0,0,.278.05066,2.25618,2.25618,0,0,1,.27822.05065,6.01259,6.01259,0,0,1,.59.219,2.81483,2.81483,0,0,1,.50578.28678,2.38506,2.38506,0,0,1,.68269.69964,3.94869,3.94869,0,0,1,.43.96929,1.55491,1.55491,0,0,1,.04209.278,1.479,1.479,0,0,0,.04208.278v.16873a.71975.71975,0,0,1,.00838.19385,1.69317,1.69317,0,0,1-.02514.19386v.18548a1.465,1.465,0,0,0-.04227.25289,1.16044,1.16044,0,0,1-.04209.23613q-.08454.25251-.16015.48027a1.80182,1.80182,0,0,1-.21061.43,1.04,1.04,0,0,1-.10969.15158,1.03506,1.03506,0,0,0-.1095.152.14587.14587,0,0,1-.0337.02514.13128.13128,0,0,0-.03371.02513c-.02266.02286-.048.05066-.076.08456-.02819.03351-.05351.06169-.07579.08417q-.13512.10112-.25289.19385a2.96886,2.96886,0,0,1-.25289.1771,1.03237,1.03237,0,0,0-.15178.10931.26237.26237,0,0,0-.08417.16034.164.164,0,0,0,.07579.16872,1.17435,1.17435,0,0,0,.16016.10093,3.27551,3.27551,0,0,1,.34563.25289,1.412,1.412,0,0,1,.27821.3203,1.54249,1.54249,0,0,1,.26965.53092q.08427.29535.16853.63223c.011.09026.02247.1771.03371.26127.011.08455.02247.17138.0337.26127a.56526.56526,0,0,1,.017.23613.55525.55525,0,0,0,.01676.23613v.15158a.63261.63261,0,0,1,.017.25289.72144.72144,0,0,0,.01676.26965.33051.33051,0,0,1,.00857.12645.41929.41929,0,0,0,.00837.1432,3.481,3.481,0,0,1,.05066.34582,1.47158,1.47158,0,0,0,.06741.32868.88905.88905,0,0,1,.04209.19386.84608.84608,0,0,0,.04208.19386Zm-2.03988-6.996a1.51165,1.51165,0,0,0,.1771-.38771q.05885-.20223.1095-.43837v-.15158a1.55938,1.55938,0,0,0,.01695-.51416,2.15047,2.15047,0,0,0-.10112-.46351,1.77355,1.77355,0,0,0-1.062-1.16314,2.351,2.351,0,0,0-.784-.152q-.44675-.01658-.91863-.01676h-2.78161a.166.166,0,0,1-.07579.01676.30173.30173,0,0,0-.09274.01713.36279.36279,0,0,0-.26984.219.9836.9836,0,0,0-.05884.42161q.00828.26966.00838.48864V79.9488q0,.25308-.00838.5313a.649.649,0,0,0,.1095.4296.36048.36048,0,0,0,.25289.14359,2.52039,2.52039,0,0,0,.37077.02514h1.04526q.65756,0,1.28121.00837a7.45052,7.45052,0,0,0,1.15477-.06741,3.25372,3.25372,0,0,0,.95234-.278A1.59758,1.59758,0,0,0,121.7609,80.13427Z" transform="translate(8.50394 8.50394)"/><path class="cls-3" d="M136.62946,86.67515q.0337.08455.08455.20224a1.24425,1.24425,0,0,1,.07541.24451.548.548,0,0,1,0,.23613.22552.22552,0,0,1-.1432.16.53582.53582,0,0,1-.20186.03389h-.73353a.84954.84954,0,0,1-.41285-.08455.58255.58255,0,0,1-.24452-.35382,4.7539,4.7539,0,0,0-.16034-.45512q-.18567-.43818-.33706-.91026-.152-.47189-.33744-.92739c-.03352-.10093-.06475-.19652-.09255-.28641a1.76707,1.76707,0,0,0-.10093-.25289.63193.63193,0,0,0-.16034-.20223.75085.75085,0,0,0-.26965-.13483.43288.43288,0,0,0-.19385-.02552c-.07313.00572-.1493.00838-.22776.00838h-3.18589q-.152,0-.33706-.00838a2.5141,2.5141,0,0,0-.3542.00838,2.4392,2.4392,0,0,0-.31192.05066.33274.33274,0,0,0-.21062.13482,1.05826,1.05826,0,0,0-.19385.37934q-.05942.2108-.14359.43-.168.3879-.31154.80894-.144.42162-.31192.80933-.034.10112-.076.22775-.04228.12626-.09255.26127a1.97871,1.97871,0,0,1-.10969.24413.48458.48458,0,0,1-.12645.16035.63162.63162,0,0,1-.36238.10968q-.22767.00858-.48046.00838-.1351,0-.26127-.00838a.36571.36571,0,0,1-.2108-.07617.1838.1838,0,0,1-.09274-.15158.67594.67594,0,0,1,.01695-.21062,1.62376,1.62376,0,0,1,.06741-.21937.85149.85149,0,0,1,.07579-.16q.23593-.53929.42142-1.0706.18538-.53073.40466-1.07021.15168-.37077.2866-.73354.13482-.36219.2866-.73315.50559-1.214.9609-2.45274.45475-1.23912.96091-2.46987.18567-.43818.34544-.8935.16-.45531.34582-.89349a4.20762,4.20762,0,0,0,.16-.41285.60718.60718,0,0,1,.22776-.32868.44647.44647,0,0,1,.219-.10131.11515.11515,0,0,1,.07579-.00838.11433.11433,0,0,0,.07617-.00838q.30279,0,.70764-.00838a.98187.98187,0,0,1,.59033.12645.65489.65489,0,0,1,.21062.32868,4.205,4.205,0,0,0,.16034.41285q.168.3879.30316.77543.13484.3879.30355.77543.13425.33763.26127.69126.12626.3542.27841.69126.505,1.23055.9689,2.48663.46389,1.2557.98643,2.48625a2.71507,2.71507,0,0,1,.10969.28679q.0417.13482.09254.2864.18567.43875.3622.8935Q136.444,86.237,136.62946,86.67515Zm-3.6075-4.09652a.28238.28238,0,0,0,.19386-.16834.50914.50914,0,0,0,.01714-.26127,1.41084,1.41084,0,0,0-.08455-.28679c-.03961-.09521-.0758-.1771-.10969-.24451a.26934.26934,0,0,1-.03352-.11806.27178.27178,0,0,0-.03389-.11769q-.05085-.13482-.09255-.27841a2.40661,2.40661,0,0,0-.10969-.29478q-.25251-.60729-.44675-1.23932-.19367-.63185-.44675-1.23894a3.27186,3.27186,0,0,1-.1432-.371,2.51719,2.51719,0,0,0-.1432-.35382,1.47935,1.47935,0,0,0-.07617-.16034.18488.18488,0,0,0-.17672-.07579.253.253,0,0,1-.0678.05065.261.261,0,0,0-.067.05066.63018.63018,0,0,0-.10131.17709c-.02285.0617-.04494.12607-.06741.19386a2.47224,2.47224,0,0,0-.13482.37058,2.48922,2.48922,0,0,1-.13483.371,13.04878,13.04878,0,0,0-.4974,1.33186q-.21081.67412-.48026,1.31473c-.02285.05636-.04228.11273-.05942.16872-.01675.05637-.03656.11235-.05865.16872-.03351.08988-.06779.17976-.10131.26965a2.525,2.525,0,0,0-.08417.26965.40735.40735,0,0,0-.02552.18547.46167.46167,0,0,0,.04228.16834.40346.40346,0,0,0,.35382.14359q.26964.00856.50578.00838H132.162q.18567,0,.45551.00838A1.11269,1.11269,0,0,0,133.022,82.57863Z" transform="translate(8.50394 8.50394)"/><path class="cls-3" d="M138.70286,75.53235h8.66493a.57156.57156,0,0,1,.28679.06741.32877.32877,0,0,1,.16.22738,2.16158,2.16158,0,0,1,.02514.36257V76.392q-.03372.13482-.05866.219a.31294.31294,0,0,1-.10968.152.696.696,0,0,1-.371.08417h-2.37695q-.18565,0-.36219-.00838a1.45531,1.45531,0,0,0-.32069.01676.56552.56552,0,0,0-.24451.10131.455.455,0,0,0-.15158.22737,1.01717,1.01717,0,0,0-.03352.38771c.01067.15768.01676.29822.01676.42161v8.74911a3.71728,3.71728,0,0,1-.02513.45512.34768.34768,0,0,1-.19424.28679.66717.66717,0,0,1-.20186.04189c-.07922.0061-.163.00838-.25289.00838h-.46389a.38177.38177,0,0,1-.32868-.11768.56051.56051,0,0,1-.1093-.3203c-.0061-.12378-.00838-.25861-.00838-.40486v-8.7152c0-.12378.00228-.267.00838-.43a1.14591,1.14591,0,0,0-.04266-.3961.385.385,0,0,0-.379-.28678q-.29536-.01658-.63223-.01676h-1.85441q-.20223,0-.4635.00838a1.09054,1.09054,0,0,1-.39648-.0419l-.10092-.06779a.28592.28592,0,0,1-.08417-.08417.45632.45632,0,0,1-.06742-.219,1.839,1.839,0,0,1-.00876-.30354,1.50336,1.50336,0,0,1,.04266-.28641.40515.40515,0,0,1,.08379-.18547.20844.20844,0,0,1,.09293-.07618.86358.86358,0,0,1,.12644-.04189.09559.09559,0,0,1,.06742-.00838A.09579.09579,0,0,0,138.70286,75.53235Z" transform="translate(8.50394 8.50394)"/><path class="cls-3" d="M150.92464,75.54911q.23593,0,.56481-.00838.32848-.00856.43.12645a.64041.64041,0,0,1,.12645.45512c-.0061.20224-.00838.39343-.00838.5732v5.66414q0,.59013.01676,1.15476a3.36652,3.36652,0,0,0,.16833,1.0028,2.81686,2.81686,0,0,0,.62385,1.079,3.11559,3.11559,0,0,0,1.02832.69126,1.33217,1.33217,0,0,0,.38772.10969,3.35169,3.35169,0,0,1,.40447.07579c.06779.01142.13787.0198.211.02513q.10968.00915.21061.02552h.16872c.06741,0,.13749.00267.21062.00838a.42328.42328,0,0,0,.19386-.02552.63315.63315,0,0,1,.17709-.00838.594.594,0,0,0,.1771-.00837c.13483-.03352.26356-.0617.38772-.08417a1.58086,1.58086,0,0,0,.371-.11807,2.60636,2.60636,0,0,0,1.0028-.65736,2.97615,2.97615,0,0,0,.58157-1.079,3.69725,3.69725,0,0,0,.16-.95253q.02571-.53073.02552-1.08735v-5.6809c0-.19119-.00267-.40714-.00838-.649a.74247.74247,0,0,1,.12645-.51416.36.36,0,0,1,.31192-.11807h.44637a1.43008,1.43008,0,0,1,.16034.00838,1.4322,1.4322,0,0,0,.16034.00838.43642.43642,0,0,1,.30316.16872.6911.6911,0,0,1,.07618.38771c-.0061.16834-.00838.3203-.00838.45513v5.83286q0,.62385-.01714,1.23056a4.59776,4.59776,0,0,1-.152,1.09573,5.15972,5.15972,0,0,1-.61509,1.40766,3.29858,3.29858,0,0,1-1.01956.986,4.02986,4.02986,0,0,1-.53968.26965q-.28735.11826-.60671.21937a2.01427,2.01427,0,0,1-.30392.0758c-.10093.01675-.208.03618-.31993.059a1.76285,1.76285,0,0,1-.34582.03351,1.728,1.728,0,0,0-.34544.0339H155.645a2.17757,2.17757,0,0,1-.5393,0h-.20262a.69017.69017,0,0,0-.24451-.02514.71829.71829,0,0,1-.24451-.02551h-.13482a2.31676,2.31676,0,0,0-.26127-.05066,2.41536,2.41536,0,0,1-.26127-.05027q-.28679-.08455-.56444-.16034a3.28436,3.28436,0,0,1-.53092-.19386,1.69811,1.69811,0,0,1-.22775-.11807c-.07312-.04456-.1493-.09521-.22775-.15158a3.22154,3.22154,0,0,1-.84284-.75867,4.27164,4.27164,0,0,1-.5732-1.02832,2.77636,2.77636,0,0,1-.15158-.52254q-.05028-.26966-.11807-.55644-.01713-.13482-.02513-.26127c-.0061-.08417-.01448-.171-.02552-.26127v-.16872a.76253.76253,0,0,1-.01676-.278,2.4163,2.4163,0,0,0,.01676-.278V75.98748a.446.446,0,0,1,.06741-.25289.39271.39271,0,0,1,.25289-.16872A.34743.34743,0,0,0,150.92464,75.54911Z" transform="translate(8.50394 8.50394)"/><path class="cls-3" d="M173.47989,87.13028a.26534.26534,0,0,1-.067.33706.46044.46044,0,0,1-.211.059c-.08417.0061-.17138.00838-.26127.00838h-.53929a.67274.67274,0,0,1-.42162-.11768.40267.40267,0,0,1-.17709-.26127q-.04228-.17711-.0758-.36258a.53049.53049,0,0,1-.01675-.12645v-.10968a.2467.2467,0,0,1-.01714-.15158.26959.26959,0,0,0,0-.13483,1.24851,1.24851,0,0,1-.01676-.20224v-.20261l-.05027-.75829a.84091.84091,0,0,1-.0339-.23614,1.03115,1.03115,0,0,0-.0339-.25289,4.64544,4.64544,0,0,1-.12644-.60671,2.174,2.174,0,0,0-.16-.57319,1.67529,1.67529,0,0,0-1.06184-.94415,1.471,1.471,0,0,0-.48065-.09255q-.26165-.00857-.54767-.00876h-3.1021c-.07884.02285-.14891.04228-.21061.059a.30809.30809,0,0,0-.16.10969.93338.93338,0,0,0-.10969.54806q.008.37933.00838.66574V86.22q0,.23651.01675.58157a1.08472,1.08472,0,0,1-.06741.51416.20541.20541,0,0,1-.13482.15158.28137.28137,0,0,1-.12645.0339.40612.40612,0,0,0-.1432.03351.43724.43724,0,0,1-.152.00876,1.66766,1.66766,0,0,0-.16833-.00876c-.12378,0-.24451-.00228-.36258-.00838a.53539.53539,0,0,1-.29479-.09254.33773.33773,0,0,1-.13482-.31193V76.42547c0-.1234-.00305-.25251-.00838-.38772a.43077.43077,0,0,1,.3283-.48864.09634.09634,0,0,1,.06779-.00838.0948.0948,0,0,0,.067-.00838h4.88871c.07883,0,.163-.00267.25289-.00876a1.07956,1.07956,0,0,1,.23613.00876h.18548c.06741.01105.1352.01942.20223.02514.0678.00571.14054.01409.21938.02513a2.10771,2.10771,0,0,0,.278.05066,2.253,2.253,0,0,1,.278.05065,6.03849,6.03849,0,0,1,.59034.219,2.82174,2.82174,0,0,1,.50578.28678,2.39161,2.39161,0,0,1,.6825.69964,3.93487,3.93487,0,0,1,.43.96929,1.55415,1.55415,0,0,1,.04227.278,1.44936,1.44936,0,0,0,.0419.278v.16873a.71978.71978,0,0,1,.00837.19385,1.69333,1.69333,0,0,1-.02513.19386v.18548a1.466,1.466,0,0,0-.04228.25289,1.13538,1.13538,0,0,1-.04227.23613c-.05637.16834-.10931.32868-.16.48027a1.80148,1.80148,0,0,1-.21062.43,1.04,1.04,0,0,1-.10968.15158,1.03354,1.03354,0,0,0-.10931.152.14663.14663,0,0,1-.0339.02514.139.139,0,0,0-.03389.02513c-.02247.02286-.048.05066-.07579.08456-.02819.03351-.05371.06169-.0758.08417-.08988.06741-.17443.13215-.25289.19385a2.96568,2.96568,0,0,1-.25289.1771,1.03078,1.03078,0,0,0-.15158.10931.26471.26471,0,0,0-.08455.16034.16392.16392,0,0,0,.07617.16872,1.17455,1.17455,0,0,0,.16.10093,3.33609,3.33609,0,0,1,.34582.25289,1.41154,1.41154,0,0,1,.278.3203,1.54249,1.54249,0,0,1,.26965.53092c.05637.1969.112.40752.16834.63223.01142.09026.02285.1771.0339.26127.011.08455.02247.17138.03389.26127a.57184.57184,0,0,1,.01676.23613.55224.55224,0,0,0,.01676.23613v.15158a.62586.62586,0,0,1,.01676.25289.72541.72541,0,0,0,.01675.26965.323.323,0,0,1,.00876.12645.42444.42444,0,0,0,.00838.1432,3.48389,3.48389,0,0,1,.05066.34582,1.46047,1.46047,0,0,0,.06741.32868.88929.88929,0,0,1,.04227.19386.82621.82621,0,0,0,.0419.19386Zm-2.03988-6.996a1.50654,1.50654,0,0,0,.17748-.38771q.05828-.20223.1093-.43837v-.15158a1.55889,1.55889,0,0,0,.01714-.51416,2.14832,2.14832,0,0,0-.10131-.46351,1.77324,1.77324,0,0,0-1.06183-1.16314,2.355,2.355,0,0,0-.78419-.152q-.44675-.01658-.91863-.01676h-2.78142a.16706.16706,0,0,1-.07617.01676.30156.30156,0,0,0-.09255.01713.36343.36343,0,0,0-.27.219.98087.98087,0,0,0-.05865.42161q.008.26966.00838.48864V79.9488q0,.25308-.00838.5313a.64575.64575,0,0,0,.10969.4296.3597.3597,0,0,0,.25289.14359,2.51582,2.51582,0,0,0,.37057.02514h1.04546q.657,0,1.28121.00837a7.45485,7.45485,0,0,0,1.15477-.06741,3.256,3.256,0,0,0,.95215-.278A1.59489,1.59489,0,0,0,171.44,80.13427Z" transform="translate(8.50394 8.50394)"/><path class="cls-3" d="M177.37418,75.54911h6.96249c.1234,0,.24679-.00267.37095-.00838a.4719.4719,0,0,1,.30317.07579.31206.31206,0,0,1,.08455.08417c.02209.0339.04456.06741.067.10131a1.52072,1.52072,0,0,1,.0339.37934,1.74269,1.74269,0,0,1-.0339.39609.3234.3234,0,0,1-.28641.26127,4.66915,4.66915,0,0,1-.52253.02514h-4.51776q-.27022,0-.63223-.00838a1.02063,1.02063,0,0,0-.53091.09293.395.395,0,0,0-.17748.35381q-.008.2531-.00838.52254v1.71958c0,.12378-.00267.26965-.00838.43837a1.67531,1.67531,0,0,0,.02514.40448.36943.36943,0,0,0,.20261.26964,1.00168,1.00168,0,0,0,.23614.06742h.16834a.39684.39684,0,0,0,.1432.00876,1.42717,1.42717,0,0,1,.16034-.00876h3.87715c.10131,0,.21366-.00229.33706-.00838q.18567-.008.37933,0a3.3146,3.3146,0,0,1,.3542.03389.69412.69412,0,0,1,.24452.07579.26985.26985,0,0,1,.08417.15159,1.70735,1.70735,0,0,1,.05065.25289,1.568,1.568,0,0,1,.00838.27841.99413.99413,0,0,1-.0419.24413.31921.31921,0,0,1-.152.21937.16019.16019,0,0,1-.09255.04228.64416.64416,0,0,0-.10968.02513h-.10131a.55666.55666,0,0,1-.16834.00838c-.05637-.00533-.11274-.00838-.16872-.00838h-4.1807c-.13482,0-.26736-.00266-.39609-.00838a1.8906,1.8906,0,0,0-.36258.01676.90875.90875,0,0,0-.29478.09255.37507.37507,0,0,0-.17748.23613.62158.62158,0,0,0-.02514.23614q.00857.13482.00838.26965v2.54566q0,.23594.01676.42961a.35981.35981,0,0,0,.1352.27841.498.498,0,0,0,.26965.09255q.1514.00857.33706.00837h5.15836q.13482,0,.26965-.00837a.62787.62787,0,0,1,.23613.02551.46218.46218,0,0,1,.26965.1851.427.427,0,0,1,.051.16872q.016.11826.02514.24451a1.33859,1.33859,0,0,1-.00838.25289c-.01142.08417-.02285.14892-.0339.19386a.43771.43771,0,0,1-.15158.18548.46324.46324,0,0,1-.26165.06741h-7.15558a2.73409,2.73409,0,0,1-.40486-.02552.34174.34174,0,0,1-.25289-.16.4619.4619,0,0,1-.06741-.26127V75.97034a.36878.36878,0,0,1,.06741-.23575.39171.39171,0,0,1,.25289-.16872.09528.09528,0,0,1,.06742-.00838A.09362.09362,0,0,0,177.37418,75.54911Z" transform="translate(8.50394 8.50394)"/><path class="cls-4" d="M61.04639,95.93819h.48388a.17862.17862,0,0,1,.18848.19629,1.1645,1.1645,0,0,0,1.26172,1.02442c.77,0,1.15527-.38477,1.15527-.97559,0-.59766-.4917-.81055-1.19629-.876-1.00781-.09082-1.96679-.45117-1.96679-1.58984v-.16406c0-.92578.59814-1.60645,1.92578-1.60645a1.765,1.765,0,0,1,1.97461,1.75391.196.196,0,0,1-.19629.20508h-.46729a.17915.17915,0,0,1-.18847-.19727,1.02591,1.02591,0,0,0-1.12256-1.02344c-.73731,0-1.07324.39258-1.07324.90918,0,.7295.54882.88477,1.2373.9502.92578.082,1.92529.418,1.92529,1.5166v.2041c0,.9834-.68017,1.63867-2.00732,1.63867A1.87365,1.87365,0,0,1,60.8584,96.1423.18921.18921,0,0,1,61.04639,95.93819Z" transform="translate(8.50394 8.50394)"/><path class="cls-4" d="M67.48438,97.78976a.2025.2025,0,0,1-.20459-.20508V92.78292H65.88672a.20943.20943,0,0,1-.21289-.2041v-.32031a.20944.20944,0,0,1,.21289-.20411H69.5249a.20944.20944,0,0,1,.21289.20411v.32031a.20943.20943,0,0,1-.21289.2041H68.13184v4.80176a.20281.20281,0,0,1-.20459.20508Z" transform="translate(8.50394 8.50394)"/><path class="cls-4" d="M70.96484,97.78976a.2025.2025,0,0,1-.20459-.20508V92.25851a.20229.20229,0,0,1,.20459-.20411h1.92578a1.66838,1.66838,0,0,1,1.89258,1.73633v.32032a1.53572,1.53572,0,0,1-1.147,1.61425l1.23731,1.88379a.12338.12338,0,0,1-.09864.18067h-.59814a.38275.38275,0,0,1-.31934-.18067l-1.13086-1.76172H71.6123v1.73731a.20291.20291,0,0,1-.20507.20508Zm.64746-2.66309h1.27832c.66358,0,1.03223-.34375,1.03223-1.11426v-.11523c0-.76953-.36865-1.10547-1.03223-1.10547H71.6123Z" transform="translate(8.50394 8.50394)"/><path class="cls-4" d="M75.91162,97.78976a.1454.1454,0,0,1-.13916-.19629l1.91748-5.34278a.29987.29987,0,0,1,.27832-.19629h.42627a.29986.29986,0,0,1,.27832.19629l1.91748,5.34278a.1443.1443,0,0,1-.13086.19629h-.4917a.30194.30194,0,0,1-.27881-.19629l-.47509-1.39356H77.12451l-.459,1.39356a.29111.29111,0,0,1-.27051.19629ZM77.354,95.487h1.63038l-.82764-2.43359Z" transform="translate(8.50394 8.50394)"/><path class="cls-4" d="M82.15283,97.78976a.2025.2025,0,0,1-.20459-.20508V92.78292H80.55518a.20943.20943,0,0,1-.21289-.2041v-.32031a.20944.20944,0,0,1,.21289-.20411h3.63818a.20944.20944,0,0,1,.21289.20411v.32031a.20943.20943,0,0,1-.21289.2041H82.80029v4.80176a.2028.2028,0,0,1-.20459.20508Z" transform="translate(8.50394 8.50394)"/><path class="cls-4" d="M85.6333,97.78976a.2025.2025,0,0,1-.20459-.20508V92.25851a.20228.20228,0,0,1,.20459-.20411h3.01563a.20945.20945,0,0,1,.21289.20411v.32812a.21026.21026,0,0,1-.21289.20508H86.28076v1.85156h1.9419a.20962.20962,0,0,1,.21289.20508v.31934a.21026.21026,0,0,1-.21289.20507h-1.9419v1.6875h2.4336a.21026.21026,0,0,1,.21289.20508v.31934a.20962.20962,0,0,1-.21289.20508Z" transform="translate(8.50394 8.50394)"/><path class="cls-4" d="M94.14453,93.62765a.18282.18282,0,0,1-.18848.19629h-.459a.17885.17885,0,0,1-.18848-.19629V93.57c0-.5-.45849-.89356-1.17138-.89356a1.08949,1.08949,0,0,0-1.16358,1.19629v2.09766a1.07443,1.07443,0,0,0,1.16358,1.19629,1.4676,1.4676,0,0,0,1.15527-.53223V95.58565H92.293a.21024.21024,0,0,1-.20508-.21289v-.31152a.20291.20291,0,0,1,.20508-.20508h1.647a.2025.2025,0,0,1,.20459.20508v2.53223a.20228.20228,0,0,1-.20459.2041H93.604a.26129.26129,0,0,1-.24609-.2041l-.01611-.16407a1.90088,1.90088,0,0,1-1.27832.47461,1.80037,1.80037,0,0,1-1.9502-1.81836V93.75851a1.82809,1.82809,0,0,1,2.02393-1.81934c1.17138,0,2.00732.64746,2.00732,1.581Z" transform="translate(8.50394 8.50394)"/><path class="cls-4" d="M95.77246,97.78976a.2025.2025,0,0,1-.20459-.20508V92.25851a.20228.20228,0,0,1,.20459-.20411h.44238a.20269.20269,0,0,1,.20508.20411v5.32617a.20291.20291,0,0,1-.20508.20508Z" transform="translate(8.50394 8.50394)"/><path class="cls-4" d="M101.84326,96.31515c0,.917-.81933,1.58886-1.99121,1.58886a1.82412,1.82412,0,0,1-1.999-1.81836V93.75851a1.82,1.82,0,0,1,1.999-1.81934c1.17188,0,1.99121.67188,1.99121,1.58984v.16407a.18939.18939,0,0,1-.19678.19629H101.188a.17838.17838,0,0,1-.18848-.19629v-.082c0-.55762-.46728-.93458-1.14746-.93458a1.07922,1.07922,0,0,0-1.13867,1.19629v2.09766a1.07922,1.07922,0,0,0,1.13867,1.19629c.68018,0,1.14746-.37695,1.14746-.9668v-.123a.17885.17885,0,0,1,.18848-.19629h.45849a.18938.18938,0,0,1,.19678.19629Z" transform="translate(8.50394 8.50394)"/><path class="cls-4" d="M105.76367,97.78976a.1454.1454,0,0,1-.13916-.19629l1.91748-5.34278a.29988.29988,0,0,1,.27832-.19629h.42627a.29986.29986,0,0,1,.27832.19629l1.91748,5.34278a.1443.1443,0,0,1-.13086.19629h-.4917a.30191.30191,0,0,1-.2788-.19629l-.4751-1.39356h-2.08936l-.459,1.39356a.29111.29111,0,0,1-.27051.19629Zm1.44238-2.30274h1.63038l-.82764-2.43359Z" transform="translate(8.50394 8.50394)"/><path class="cls-4" d="M111.70166,97.78976a.2025.2025,0,0,1-.20459-.20508V92.25851a.20228.20228,0,0,1,.20459-.20411h1.92578A1.72793,1.72793,0,0,1,115.52,93.87276v2.09766a1.72865,1.72865,0,0,1-1.89258,1.81934Zm.64746-.7295h1.27832c.66358,0,1.03223-.418,1.03223-1.19629V93.97921c0-.77832-.36865-1.1875-1.03223-1.1875h-1.27832Z" transform="translate(8.50394 8.50394)"/><path class="cls-4" d="M118.47559,97.78976a.30127.30127,0,0,1-.27832-.19629l-1.84375-5.34278a.14206.14206,0,0,1,.13916-.19629h.4917a.26455.26455,0,0,1,.2622.19629l1.4668,4.53907,1.41748-4.53907a.28188.28188,0,0,1,.27051-.19629h.47509a.14206.14206,0,0,1,.13916.19629l-1.82714,5.34278a.30179.30179,0,0,1-.27832.19629Z" transform="translate(8.50394 8.50394)"/><path class="cls-4" d="M122.2749,97.78976a.2025.2025,0,0,1-.20459-.20508V92.25851a.20229.20229,0,0,1,.20459-.20411h.44239a.20269.20269,0,0,1,.20507.20411v5.32617a.20291.20291,0,0,1-.20507.20508Z" transform="translate(8.50394 8.50394)"/><path class="cls-4" d="M124.47852,95.93819h.48339a.17862.17862,0,0,1,.18848.19629,1.1645,1.1645,0,0,0,1.26172,1.02442c.77051,0,1.15527-.38477,1.15527-.97559,0-.59766-.49121-.81055-1.19629-.876-1.00781-.09082-1.96679-.45117-1.96679-1.58984v-.16406c0-.92578.59863-1.60645,1.92578-1.60645a1.76526,1.76526,0,0,1,1.97461,1.75391.196.196,0,0,1-.19629.20508h-.4668a.17891.17891,0,0,1-.18848-.19727,1.02664,1.02664,0,0,0-1.123-1.02344c-.73731,0-1.07324.39258-1.07324.90918,0,.7295.54882.88477,1.2373.9502.92578.082,1.92578.418,1.92578,1.5166v.2041c0,.9834-.68066,1.63867-2.00781,1.63867A1.87365,1.87365,0,0,1,124.29,96.1423.18959.18959,0,0,1,124.47852,95.93819Z" transform="translate(8.50394 8.50394)"/><path class="cls-4" d="M129.74414,96.08565V93.75851a2.11388,2.11388,0,0,1,4.18652,0v2.32714a2.114,2.114,0,0,1-4.18652,0Zm.86035-2.21289v2.09766a1.23347,1.23347,0,0,0,2.46582,0V93.87276a1.23347,1.23347,0,0,0-2.46582,0Z" transform="translate(8.50394 8.50394)"/><path class="cls-4" d="M135.56836,97.78976a.20261.20261,0,0,1-.20508-.20508V92.25851a.20239.20239,0,0,1,.20508-.20411h1.9248a1.66893,1.66893,0,0,1,1.89356,1.73633v.32032a1.53561,1.53561,0,0,1-1.14746,1.61425l1.2373,1.88379a.12338.12338,0,0,1-.09863.18067h-.59766a.38443.38443,0,0,1-.32031-.18067l-1.12988-1.76172h-1.11524v1.73731a.20239.20239,0,0,1-.2041.20508Zm.64648-2.66309h1.27832c.66407,0,1.03321-.34375,1.03321-1.11426v-.11523c0-.76953-.36914-1.10547-1.03321-1.10547h-1.27832Z" transform="translate(8.50394 8.50394)"/><path class="cls-4" d="M142.21777,97.78976a.20993.20993,0,0,1-.21289-.20508V95.84737l-1.74511-3.60449a.1289.1289,0,0,1,.11523-.18848h.51562a.33335.33335,0,0,1,.29493.18848l1.2539,2.77734,1.26172-2.77734a.31549.31549,0,0,1,.29492-.18848h.49219a.13161.13161,0,0,1,.11426.18848l-1.73731,3.58887v1.75293a.2093.2093,0,0,1-.21289.20508Z" transform="translate(8.50394 8.50394)"/><path class="cls-4" d="M148.54,95.93819h.4834a.17861.17861,0,0,1,.18847.19629,1.1645,1.1645,0,0,0,1.26172,1.02442c.77051,0,1.15528-.38477,1.15528-.97559,0-.59766-.49121-.81055-1.19629-.876-1.00782-.09082-1.9668-.45117-1.9668-1.58984v-.16406c0-.92578.59863-1.60645,1.92578-1.60645a1.76526,1.76526,0,0,1,1.97461,1.75391.196.196,0,0,1-.19629.20508h-.4668a.17891.17891,0,0,1-.18847-.19727,1.02665,1.02665,0,0,0-1.123-1.02344c-.7373,0-1.07324.39258-1.07324.90918,0,.7295.54883.88477,1.2373.9502.92579.082,1.92579.418,1.92579,1.5166v.2041c0,.9834-.68067,1.63867-2.00782,1.63867a1.87365,1.87365,0,0,1-2.12207-1.76171A.189.189,0,0,1,148.54,95.93819Z" transform="translate(8.50394 8.50394)"/><path class="cls-4" d="M154.05176,97.78976a.20261.20261,0,0,1-.20508-.20508V92.25851a.20239.20239,0,0,1,.20508-.20411h3.01465a.20913.20913,0,0,1,.21289.20411v.32812a.20994.20994,0,0,1-.21289.20508h-2.36817v1.85156h1.94238a.20931.20931,0,0,1,.2129.20508v.31934a.20994.20994,0,0,1-.2129.20507h-1.94238v1.6875h2.4336a.2108.2108,0,0,1,.21386.20508v.31934a.21016.21016,0,0,1-.21386.20508Z" transform="translate(8.50394 8.50394)"/><path class="cls-4" d="M158.77832,97.78976a.20261.20261,0,0,1-.20508-.20508V92.25851a.2024.2024,0,0,1,.20508-.20411h1.9248a1.66893,1.66893,0,0,1,1.89356,1.73633v.32032a1.53561,1.53561,0,0,1-1.14746,1.61425l1.2373,1.88379a.12338.12338,0,0,1-.09863.18067h-.59766a.38443.38443,0,0,1-.32031-.18067L160.54,95.84737H159.4248v1.73731a.20239.20239,0,0,1-.2041.20508Zm.64648-2.66309h1.27832c.66407,0,1.03321-.34375,1.03321-1.11426v-.11523c0-.76953-.36914-1.10547-1.03321-1.10547H159.4248Z" transform="translate(8.50394 8.50394)"/><path class="cls-4" d="M165.59277,97.78976a.30129.30129,0,0,1-.27832-.19629l-1.84375-5.34278a.142.142,0,0,1,.13965-.19629h.49121a.264.264,0,0,1,.26172.19629l1.4668,4.53907,1.418-4.53907a.28233.28233,0,0,1,.2705-.19629h.47559a.1418.1418,0,0,1,.13867.19629l-1.82715,5.34278a.30127.30127,0,0,1-.27832.19629Z" transform="translate(8.50394 8.50394)"/><path class="cls-4" d="M169.39355,97.78976a.2026.2026,0,0,1-.20507-.20508V92.25851a.20239.20239,0,0,1,.20507-.20411h.44239a.20217.20217,0,0,1,.2041.20411v5.32617a.20239.20239,0,0,1-.2041.20508Z" transform="translate(8.50394 8.50394)"/><path class="cls-4" d="M175.46289,96.31515c0,.917-.81934,1.58886-1.99121,1.58886a1.82412,1.82412,0,0,1-1.999-1.81836V93.75851a1.82,1.82,0,0,1,1.999-1.81934c1.17187,0,1.99121.67188,1.99121,1.58984v.16407a.18927.18927,0,0,1-.19629.19629h-.459a.17814.17814,0,0,1-.18848-.19629v-.082c0-.55762-.4668-.93458-1.14746-.93458a1.07921,1.07921,0,0,0-1.13867,1.19629v2.09766a1.07921,1.07921,0,0,0,1.13867,1.19629c.68066,0,1.14746-.37695,1.14746-.9668v-.123a.17861.17861,0,0,1,.18848-.19629h.459a.18926.18926,0,0,1,.19629.19629Z" transform="translate(8.50394 8.50394)"/><path class="cls-4" d="M177.084,97.78976a.2026.2026,0,0,1-.20507-.20508V92.25851a.20239.20239,0,0,1,.20507-.20411h3.01465a.21.21,0,0,1,.21387.20411v.32812a.2108.2108,0,0,1-.21387.20508h-2.36816v1.85156h1.94238a.20993.20993,0,0,1,.21289.20508v.31934a.21057.21057,0,0,1-.21289.20507h-1.94238v1.6875h2.43359a.2108.2108,0,0,1,.21387.20508v.31934a.21016.21016,0,0,1-.21387.20508Z" transform="translate(8.50394 8.50394)"/><path class="cls-4" d="M181.68652,95.93819h.4834a.17862.17862,0,0,1,.18848.19629,1.1645,1.1645,0,0,0,1.26172,1.02442c.7705,0,1.15527-.38477,1.15527-.97559,0-.59766-.49121-.81055-1.19629-.876-1.00781-.09082-1.9668-.45117-1.9668-1.58984v-.16406c0-.92578.59864-1.60645,1.92579-1.60645a1.76526,1.76526,0,0,1,1.97461,1.75391.196.196,0,0,1-.19629.20508h-.4668a.17891.17891,0,0,1-.18848-.19727,1.02664,1.02664,0,0,0-1.123-1.02344c-.73731,0-1.07325.39258-1.07325.90918,0,.7295.54883.88477,1.23731.9502.92578.082,1.92578.418,1.92578,1.5166v.2041c0,.9834-.68066,1.63867-2.00781,1.63867a1.87365,1.87365,0,0,1-2.12207-1.76171A.189.189,0,0,1,181.68652,95.93819Z" transform="translate(8.50394 8.50394)"/></g></svg>